<?xml version="1.0" encoding="UTF-8"?>
<svg xmlns="http://www.w3.org/2000/svg" version="1.1" xmlns:inkscape="http://www.inkscape.org/namespaces/inkscape" xmlns:sodipodi="http://sodipodi.sourceforge.net/DTD/sodipodi-0.dtd" xmlns:svg="http://www.w3.org/2000/svg" xmlns:xlink="http://www.w3.org/1999/xlink" viewBox="0 0 342.5 285.8">
  <defs>
    <style>
      .cls-1 {
        stroke-width: .8px;
      }

      .cls-1, .cls-2, .cls-3, .cls-4, .cls-5, .cls-6, .cls-7, .cls-8, .cls-9, .cls-10, .cls-11, .cls-12, .cls-13, .cls-14 {
        stroke-miterlimit: 11.3;
      }

      .cls-1, .cls-2, .cls-4, .cls-15, .cls-8, .cls-9, .cls-16, .cls-11, .cls-13, .cls-14 {
        stroke: #121212;
      }

      .cls-1, .cls-15, .cls-9, .cls-16, .cls-13 {
        fill: #181818;
      }

      .cls-2 {
        fill: #e7e7e7;
        stroke-width: .5px;
      }

      .cls-3 {
        stroke-opacity: .8;
      }

      .cls-3, .cls-6, .cls-7, .cls-10, .cls-12 {
        stroke: #000;
      }

      .cls-3, .cls-11, .cls-13 {
        stroke-width: .7px;
      }

      .cls-3, .cls-14 {
        fill: #020202;
      }

      .cls-4 {
        stroke-width: .5px;
      }

      .cls-4, .cls-8, .cls-10 {
        fill: #232323;
      }

      .cls-17 {
        fill: #8cf65a;
        font-size: 12.3px;
      }

      .cls-17, .cls-18, .cls-19, .cls-20, .cls-21 {
        isolation: isolate;
      }

      .cls-17, .cls-19, .cls-20, .cls-21 {
        font-family: ArialMT, Arial;
      }

      .cls-5 {
        fill: #fff;
        stroke: #fff;
        stroke-width: .6px;
      }

      .cls-6 {
        stroke-width: .6px;
      }

      .cls-6, .cls-12 {
        fill: #000;
      }

      .cls-19 {
        fill: #45a2f1;
        font-size: 12.3px;
      }

      .cls-15 {
        stroke-miterlimit: 3;
        stroke-width: .6px;
      }

      .cls-15, .cls-16 {
        fill-rule: evenodd;
      }

      .cls-20 {
        fill: #fff05f;
        font-size: 12.3px;
      }

      .cls-22 {
        fill: #0e0e0e;
        stroke-width: 0px;
      }

      .cls-7 {
        fill: #1c1c1c;
        stroke-width: .3px;
      }

      .cls-8 {
        stroke-width: .4px;
      }

      .cls-9 {
        fill-opacity: 1;
        stroke-width: .5px;
      }

      .cls-10, .cls-14 {
        stroke-width: .3px;
      }

      .cls-16 {
        stroke-width: .8px;
      }

      .cls-11 {
        fill: none;
      }

      .cls-12 {
        stroke-width: .9px;
      }

      .cls-23 {
        display: none;
      }

      .cls-21 {
        fill: #ff7179;
        font-size: 12.1px;
      }
    </style>
  </defs>
  <g id="svg5" inkscape:export-filename="/Users/jemarquezab/Documents/Prueba control/8bitdo pro2/base.png" inkscape:export-xdpi="96" sodipodi:docname="base.svg">
    <sodipodi:namedview id="namedview7" bordercolor="#666666" borderopacity="1.0" inkscape:current-layer="layer10" inkscape:cx="250.85668" inkscape:cy="300.53127" inkscape:document-units="mm" inkscape:lockguides="false" inkscape:pagecheckerboard="0" inkscape:pageopacity="0.0" inkscape:pageshadow="2" inkscape:window-height="1395" inkscape:window-maximized="1" inkscape:window-width="2560" inkscape:window-x="0" inkscape:window-y="23" inkscape:zoom="1.8117915" pagecolor="#ffffff" showgrid="false">
      <inkscape:grid id="grid24241" originx="-41.393108" originy="-65.967602" type="xygrid"/>
    </sodipodi:namedview>
    <g id="layer1" class="cls-23" inkscape:groupmode="layer" inkscape:label="base">
      <image id="image832" class="cls-18" width="1508" height="925" transform="translate(-59.9 7.1) scale(.3)" xlink:href="base-1.png"/>
    </g>
    <g id="layer11" class="cls-23" inkscape:groupmode="layer" inkscape:label="base color">
      <image id="image24811" class="cls-18" width="800" height="800" transform="translate(-88 -267.9) scale(.6)" xlink:href="base-2.png"/>
    </g>
    <path id="path903" class="cls-13" d="M235.1,198.5c25.4,10.1,33.9,39.9,33.9,39.9,2.1,1,6.9,54.7,43.8,46,37.2-8.8,28.5-67.9,28.5-67.9,0,0-.8-36.4-11.2-93.3-10.4-56.9-65.4-57.7-65.4-57.7l-188.9.4s-46.8,3.6-59.9,44.6C2.7,151.5.7,222.3.7,222.3c0,0-6.4,65,39.9,62.5,0,0,21,4.6,32.4-44,0,0,5-19.7,20.2-33.4,0,0,8.6-7.4,13.1-9.1,0,0,14.8,8.5,28.6,1.9,14.1-6.7,16.1-13.4,16.1-12.9h40.4s6.8,10.9,20.3,14.3c13.4,3.4,23.3-3.1,23.3-3.1h0Z" sodipodi:nodetypes="ccscsccscccccsccsc"/>
    <path id="path3308" class="cls-11" d="M108.6,199.3c-1.5-2.4-3-4.6-5.5-6.3h0" sodipodi:nodetypes="ccc"/>
    <path id="path3343" class="cls-11" d="M235.1,198.5c1.2-2.4,2.7-4.1,4.3-5.6" sodipodi:nodetypes="cc"/>
    <path id="path2307" class="cls-4" d="M191.5,187.3c2.9-1.1,1.2-4.7,1.2-4.7-7.4-17.6,5.5-32.2,5.5-32.2,21.4-18.6,38.6-3.6,38.6-3.6,26.5,24.5,2.6,46.2,2.6,46.2,23,10.7,45.3.7,45.3.7,46.7-19.1,40.1-65.1,40.1-65.1-6-57.7-61.9-58.1-61.9-58.1H82.9s-47-3.4-63.1,45.8c0,0-9.2,26,8,53.1,17.2,27.1,44.9,28.2,44.9,28.2,0,0,20.4,2.5,30.4-4.6,0,0-14.9-11.6-7.3-34.3,0,0,8.4-19.3,30.3-17.1,21.9,2.2,25.4,23.3,25.4,23.3,0,0,2.8,7.9-1.6,19.3,0,0-1.2,2.2,1.1,3.2h40.4Z" sodipodi:nodetypes="ccccccccccscccscccc"/>
    <ellipse id="path20891" class="cls-5" cx="171.3" cy="83.3" rx="1.3" ry="1.3"/>
    <ellipse id="path6182" class="cls-6" cx="238.5" cy="118.6" rx="11.5" ry="11.4"/>
    <ellipse id="path6182-0" class="cls-6" cx="291.9" cy="118.8" rx="11.5" ry="11.4"/>
    <ellipse id="path6182-08" class="cls-6" cx="265.2" cy="142.2" rx="11.5" ry="11.4"/>
    <ellipse id="path6182-9" class="cls-2" cx="265" cy="174.6" rx="9.8" ry="9.6"/>
    <ellipse id="path6182-9-2" class="cls-8" cx="265" cy="174.7" rx="7.3" ry="7.2"/>
    <ellipse id="path6182-9-2-7" class="cls-8" cx="77.5" cy="174.2" rx="7.3" ry="7.2"/>
    <ellipse id="path6182-3" class="cls-6" cx="265.2" cy="95.4" rx="11.5" ry="11.4"/>
    <g id="text9949" class="cls-18">
      <text class="cls-19" transform="translate(235 123.2) scale(.9 1)"><tspan x="0" y="0">X</tspan></text>
    </g>
    <text class="cls-20" transform="translate(261.4 99.8) scale(.9 1)"><tspan x="0" y="0">Y</tspan></text>
    <g id="text14953" class="cls-18">
      <text class="cls-21" transform="translate(288.6 123.2) scale(.8 1)"><tspan x="0" y="0">B</tspan></text>
    </g>
    <g id="text16761" class="cls-18">
      <text class="cls-17" transform="translate(261.4 146.7) scale(.8 1)"><tspan x="0" y="0">A</tspan></text>
    </g>
    <path id="path20560" class="cls-3" d="M70.7,92.5h13.3s2.1-.1,2.1,2.1v14.2s0,1.7,1.8,1.7h13.7s2.4,0,2.4,2.4v12.5s.3,1.9-1.9,1.9h-14.2s-2.1.8-2.1,2.1v14.4s.2,1.9-1.9,1.9h-12.9s-2.2-.6-2.2-2.2v-14.4s.2-1.7-1.7-1.7h-14.5s-1.6.2-1.6-2.7v-12.2s.2-2.3,2.3-2.3h13.7s2,.3,2-1.1v-14.8s.6-1.8,1.7-1.8h0Z"/>
    <ellipse id="path20683" class="cls-14" cx="77.6" cy="119" rx="6.3" ry="6.3"/>
    <path id="path21320" class="cls-13" d="M167,133.3h8.2s3,0,3.5,3.5-1.6,4.5-2.6,4.5c-4.1.2-7.1.5-9.1,0-1.5-.4-3-1.1-3-3.4,0-2.3.9-4,3-4.6h0Z" sodipodi:nodetypes="ccssssc"/>
    <path id="path22618" class="cls-15" d="M72.5,105l5.2-9.1,5.3,9.1h-10.5Z" inkscape:flatsided="true" inkscape:randomized="0" inkscape:rounded="0" inkscape:transform-center-x="-0.0012780182" inkscape:transform-center-y="-0.53310056" sodipodi:arg1="2.6167969" sodipodi:arg2="3.6639944" sodipodi:cx="260.81345" sodipodi:cy="376.8736" sodipodi:r1="8.0762043" sodipodi:r2="4.0381021" sodipodi:sides="3" sodipodi:type="star"/>
    <path id="path22618-8" class="cls-15" d="M72.3,132.2l5.2,9.1,5.3-9.1h-10.5Z" inkscape:flatsided="true" inkscape:randomized="0" inkscape:rounded="0" inkscape:transform-center-x="-0.0012780182" inkscape:transform-center-y="0.53309596" sodipodi:arg1="2.6167969" sodipodi:arg2="3.6639944" sodipodi:cx="260.81345" sodipodi:cy="376.8736" sodipodi:r1="8.0762043" sodipodi:r2="4.0381021" sodipodi:sides="3" sodipodi:type="star"/>
    <path id="path22618-1" class="cls-15" d="M90.5,113.6l9.1,5.2-9.1,5.3v-10.5Z" inkscape:flatsided="true" inkscape:randomized="0" inkscape:rounded="0" inkscape:transform-center-x="-0.53309971" inkscape:transform-center-y="0.001278444" sodipodi:arg1="2.6167969" sodipodi:arg2="3.6639944" sodipodi:cx="260.81345" sodipodi:cy="376.8736" sodipodi:r1="8.0762043" sodipodi:r2="4.0381021" sodipodi:sides="3" sodipodi:type="star"/>
    <path id="path22618-80" class="cls-15" d="M64.2,124.1l-9.1-5.2,9.1-5.3v10.5Z" inkscape:flatsided="true" inkscape:randomized="0" inkscape:rounded="0" inkscape:transform-center-x="0.53310059" inkscape:transform-center-y="-0.0012781194" sodipodi:arg1="2.6167969" sodipodi:arg2="3.6639944" sodipodi:cx="260.81345" sodipodi:cy="376.8736" sodipodi:r1="8.0762043" sodipodi:r2="4.0381021" sodipodi:sides="3" sodipodi:type="star"/>
    <path id="path20787" class="cls-16" d="M80.3,178.4l-2.8-1.5-2.8,1.6.5-3.2-2.3-2.2,3.1-.5,1.4-3,1.5,2.9,3.2.4-2.2,2.3.6,3.2Z" inkscape:flatsided="false" inkscape:randomized="0" inkscape:rounded="0" inkscape:transform-center-x="0.0084975131" inkscape:transform-center-y="-0.15749145" sodipodi:arg1="0.92625029" sodipodi:arg2="1.5545688" sodipodi:cx="253.53586" sodipodi:cy="475.7128" sodipodi:r1="6.5382366" sodipodi:r2="3.2691183" sodipodi:sides="5" sodipodi:type="star"/>
    <ellipse id="path22763-7-9" class="cls-12" cx="219.6" cy="168.4" rx="23.4" ry="23.6"/>
    <ellipse id="path22763-7-9-3" class="cls-12" cx="123.1" cy="168.3" rx="23.4" ry="23.6"/>
    <path id="path3952" class="cls-22" d="M146.4,106.3h48.6s9.6-.2,10.7,11.5c0,0-.3,10.1-10.4,10.7,0,0-34.8.5-49.2,0-4.6-.2-8.7-2.3-9.6-9.9,0-.9.3-12.3,9.8-12.3h0Z" sodipodi:nodetypes="scccsss"/>
    <path id="path3952-5" class="cls-10" d="M148.7,108h44.5s8.8-.2,9.8,9.5c0,0-.2,8.4-9.5,8.9,0,0-31.9.4-45,0-4.2-.1-8-1.9-8.8-8.2,0-.7.3-10.2,9-10.2Z" sodipodi:nodetypes="scccsss"/>
    <path id="path3952-0" class="cls-7" d="M146.9,113.2h17.4s3.4,0,3.8,4.4c0,0,0,3.9-3.7,4.1h-17.7s-2.8-.2-3.4-3.8c0,0,.2-4.7,3.5-4.7h0Z" sodipodi:nodetypes="sccccss"/>
    <path id="path3952-0-9" class="cls-7" d="M177.9,113.4h17.4s3.4,0,3.8,4.4c0,0,0,3.9-3.7,4.1h-17.7s-2.8-.2-3.4-3.8c0,0,.2-4.7,3.5-4.7Z" sodipodi:nodetypes="sccccss"/>
    <g>
      <rect id="rect6444-3-1" class="cls-9" x="259.7" y="173.3" width="1.8" height="1.7"/>
      <rect id="rect6444-5" class="cls-9" x="266.6" y="171" width="1.8" height="1.7"/>
      <rect id="rect6444" class="cls-9" x="262" y="171" width="1.8" height="1.7"/>
      <rect id="rect6444-3" class="cls-9" x="264.3" y="173.3" width="1.8" height="1.7"/>
      <rect id="rect6444-3-8" class="cls-9" x="262" y="175.6" width="1.8" height="1.7"/>
      <rect id="rect6444-3-8-7" class="cls-9" x="266.6" y="175.6" width="1.8" height="1.7"/>
      <rect id="rect6444-3-8-7-1" class="cls-9" x="264.3" y="177.8" width="1.8" height="1.7"/>
      <rect id="rect6444-3-3" class="cls-9" x="268.9" y="173.3" width="1.8" height="1.7"/>
    </g>
    <g id="layer6" inkscape:groupmode="layer" inkscape:label="R 1">
      <g id="g6077">
        <path id="path4512" class="cls-13" d="M228.2,65.5c12.8,0,25.7,0,38.5.1,11.1,1.2,22.1,4.3,32,10.3-.4,0,.4-3.8-.4-4.3-11.9-7.2-20.6-9-31.6-9.9-12.5,0-24.9,0-37.4,0-1.6.4-1.2,2-1.2,3.2,0,0-.1.6,0,.5h0Z" sodipodi:nodetypes="cccsccccc"/>
        <path id="path5039" class="cls-13" d="M228.1,65.1c.1,0,0,.2,0,.3,0,0,0,0,0,.1"/>
      </g>
    </g>
    <g id="layer7" inkscape:groupmode="layer" inkscape:label="L 1">
      <g id="g6135">
        <path id="path4512-4" class="cls-1" d="M114.3,65.6c-12.7,0-25.5,0-38.2.1-11,1.2-21.9,4.4-31.7,10.5.4,0-.4-3.9.4-4.3,11.8-7.4,20.4-9.1,31.4-10.1,12.4,0,24.7,0,37.1,0,1.6.4,1.2,2,1.2,3.2,0,0,.1.6,0,.5h0Z" sodipodi:nodetypes="cccsccccc"/>
        <path id="path5039-2" class="cls-1" d="M114.4,65.1c-.1,0,0,.2,0,.3,0,0,0,0,0,.1"/>
      </g>
    </g>
    <g id="layer10" inkscape:groupmode="layer" inkscape:label="L 2">
      <path id="path23787" class="cls-13" d="M50.5,51.6h56.7s2.7-.8,2.7-4.6S102.2,0,81.4.4s-32.3,27.7-32.3,27.7c0,0-11.8,24.8,1.4,23.6h0Z" sodipodi:nodetypes="ccsscc"/>
      <path id="path23787-7" class="cls-13" d="M292.2,51.6h-56.7s-2.7-.8-2.7-4.6S240.5,0,261.3.4c20.8.3,32.3,27.7,32.3,27.7,0,0,11.8,24.8-1.4,23.6h0Z" sodipodi:nodetypes="ccsscc"/>
    </g>
  </g>
</svg>